Coordinates
version=1
nRows=21
nColumns=22
inDegrees=yes

Units are S.I. units (second, meters, Newtons, ...)
If the header above contains a line with 'inDegrees', this indicates whether rotational values are in degrees (yes) or radians (no).

endheader
time	pelvis_tilt	pelvis_list	pelvis_rotation	pelvis_tx	pelvis_ty	pelvis_tz	hip_flexion_r	hip_adduction_r	hip_rotation_r	knee_angle_r	ankle_angle_r	subtalar_angle_r	hip_flexion_l	hip_adduction_l	hip_rotation_l	knee_angle_l	ankle_angle_l	subtalar_angle_l	lumbar_extension	lumbar_bending	lumbar_rotation
      0.01000000	    -12.10565660	      2.26883259	    -18.69204030	     -1.37957429	      0.97481344	     -0.35805941	     21.10787528	      2.35668449	     -2.00334625	    -22.81670075	     19.32243615	     -5.61686231	     20.76332044	      0.26440724	     -3.79423211	    -20.80940429	     19.48617550	     -3.96226511	      3.44586022	      2.13016665	      5.02214700
      0.02000000	    -12.09482358	      2.26098794	    -18.68383633	     -1.37953488	      0.97481178	     -0.35815621	     21.10115326	      2.35369555	     -1.99910060	    -22.83078050	     19.32075088	     -5.61770388	     20.75695976	      0.26642941	     -3.79527930	    -20.81549758	     19.48884433	     -3.96162158	      3.46392113	      2.13640137	      5.02427304
      0.03000000	    -12.07211970	      2.24505066	    -18.67844365	     -1.37954337	      0.97480779	     -0.35828609	     21.10734639	      2.35399802	     -1.99685128	    -22.89151525	     19.31992949	     -5.62361239	     20.74603081	      0.26516050	     -3.79068244	    -20.83729473	     19.52423900	     -3.95481593	      3.45805266	      2.15147732	      5.01842334
      0.04000000	    -12.05759555	      2.23696320	    -18.67030699	     -1.37949299	      0.97480814	     -0.35840183	     21.09850141	      2.34931523	     -1.99173170	    -22.90756419	     19.31967813	     -5.62431172	     20.73680955	      0.26923336	     -3.79029743	    -20.84955480	     19.52732219	     -3.95387011	      3.48238005	      2.15845777	      5.01947178
      0.05000000	    -12.03137412	      2.22513228	    -18.66020606	     -1.37951535	      0.97479909	     -0.35854549	     21.10436258	      2.34431048	     -1.98133808	    -22.97130770	     19.32988042	     -5.62914483	     20.73355461	      0.27485415	     -3.77673110	    -20.89228477	     19.55841370	     -3.94513059	      3.47765938	      2.16642292	      4.99752697
      0.06000000	    -12.01358723	      2.21728743	    -18.65039111	     -1.37950870	      0.97478853	     -0.35869346	     21.10925248	      2.33670719	     -1.97522595	    -23.01669124	     19.33813005	     -5.63268116	     20.73248145	      0.28205250	     -3.76737211	    -20.92482709	     19.57298488	     -3.93688386	      3.49001192	      2.17877631	      4.97519504
      0.07000000	    -12.00075570	      2.21050748	    -18.64168023	     -1.37950124	      0.97477308	     -0.35882991	     21.11879123	      2.33089502	     -1.96739761	    -23.06238970	     19.34101887	     -5.63567946	     20.73343399	      0.28758039	     -3.75805693	    -20.95420416	     19.57744027	     -3.93019397	      3.50866096	      2.18923553	      4.94964063
      0.08000000	    -11.99236148	      2.20623885	    -18.63481419	     -1.37949324	      0.97475097	     -0.35896390	     21.13421126	      2.32474813	     -1.95975079	    -23.11028301	     19.34019520	     -5.63912670	     20.73643059	      0.29366251	     -3.75067922	    -20.97886959	     19.57745841	     -3.92501839	      3.53227655	      2.19985955	      4.92034883
      0.09000000	    -11.98856007	      2.20585014	    -18.63021098	     -1.37947158	      0.97472344	     -0.35909444	     21.15406623	      2.31596282	     -1.95429462	    -23.15684115	     19.33743048	     -5.64347395	     20.73830036	      0.30131893	     -3.74759624	    -20.99262559	     19.57592844	     -3.92166206	      3.56291208	      2.20854535	      4.89127305
      0.10000000	    -12.00351908	      2.23299956	    -18.62327063	     -1.37943927	      0.97465121	     -0.35924703	     21.20528998	      2.28186183	     -1.96029955	    -23.20951528	     19.34050076	     -5.65704626	     20.76413871	      0.33372107	     -3.74657419	    -20.99722836	     19.57105858	     -3.91908936	      3.62641058	      2.19366472	      4.87009071
      0.11000000	    -11.99518201	      2.22861919	    -18.63210942	     -1.37936760	      0.97464557	     -0.35936711	     21.20828393	      2.27799980	     -1.95035371	    -23.23908381	     19.34051996	     -5.65874241	     20.74173996	      0.33769934	     -3.75517753	    -20.98152625	     19.57116113	     -3.91962036	      3.65197639	      2.20993834	      4.85206960
      0.12000000	    -11.98188700	      2.23275142	    -18.64525442	     -1.37927096	      0.97464930	     -0.35948487	     21.20754825	      2.26284689	     -1.94315494	    -23.26653064	     19.34123011	     -5.65994365	     20.70655820	      0.35120509	     -3.77488305	    -20.94683708	     19.57923958	     -3.92134701	      3.67642108	      2.21650398	      4.83587878
      0.13000000	    -11.92240769	      2.26680213	    -18.67653445	     -1.37913847	      0.97471570	     -0.35957561	     21.16845508	      2.20670587	     -1.91681426	    -23.29325696	     19.36170877	     -5.65884142	     20.61533794	      0.40746994	     -3.81409455	    -20.88141633	     19.58756181	     -3.92943080	      3.66149487	      2.16943771	      4.86536082
      0.14000000	    -11.90917273	      2.26186831	    -18.69127853	     -1.37904666	      0.97472895	     -0.35968444	     21.15820005	      2.20081200	     -1.91488465	    -23.30650385	     19.36669925	     -5.65825988	     20.58270750	      0.41284935	     -3.82831175	    -20.85427650	     19.59000867	     -3.93025344	      3.67926848	      2.18665149	      4.84962777
      0.15000000	    -11.81861406	      2.26097663	    -18.71685703	     -1.37891081	      0.97487278	     -0.35974928	     21.06159972	      2.16943493	     -1.89575041	    -23.30749877	     19.39244269	     -5.64377344	     20.45412407	      0.44535922	     -3.85508768	    -20.79891523	     19.59179856	     -3.93843925	      3.61140883	      2.16297593	      4.86952238
      0.16000000	    -11.80988979	      2.25748001	    -18.72369554	     -1.37885975	      0.97487790	     -0.35983807	     21.05376102	      2.16477065	     -1.89498420	    -23.31218685	     19.39212042	     -5.64369392	     20.44624337	      0.45103743	     -3.85344280	    -20.80717694	     19.59270928	     -3.93847197	      3.63069048	      2.17058598	      4.86785573
      0.17000000	    -11.80099357	      2.25483022	    -18.73150048	     -1.37881644	      0.97488468	     -0.35992547	     21.04607377	      2.15888513	     -1.89449823	    -23.31529049	     19.39273193	     -5.64360756	     20.43947330	      0.45678802	     -3.85057660	    -20.81788287	     19.59390930	     -3.93857789	      3.64816249	      2.17865829	      4.86579471
      0.18000000	    -11.78778741	      2.24818443	    -18.72557969	     -1.37879393	      0.97489054	     -0.36002988	     21.02634020	      2.15244624	     -1.90037216	    -23.30484510	     19.40919824	     -5.64163362	     20.44680329	      0.46332427	     -3.83277412	    -20.86346492	     19.60549888	     -3.94142465	      3.65372015	      2.18558913	      4.85439225
      0.19000000	    -11.79150513	      2.22305912	    -18.70992099	     -1.37878888	      0.97487160	     -0.36014690	     21.02282097	      2.16475091	     -1.93423038	    -23.30348015	     19.42904394	     -5.63507811	     20.47336316	      0.44766338	     -3.80134357	    -20.92084469	     19.61353824	     -3.94813592	      3.66947252	      2.22171298	      4.81607201
      0.20000000	    -11.78660964	      2.21822638	    -18.70977179	     -1.37880389	      0.97485813	     -0.36023786	     21.01864458	      2.16196570	     -1.93492159	    -23.30050913	     19.42979186	     -5.63289962	     20.49495812	      0.45012503	     -3.78353230	    -20.97421103	     19.61216778	     -3.95078728	      3.68011079	      2.22884980	      4.81724097
      0.21000000	    -11.80022095	      2.19635932	    -18.69466627	     -1.37885791	      0.97480680	     -0.36032852	     21.03325101	      2.18045585	     -1.94693401	    -23.30871353	     19.44225210	     -5.63037365	     20.54882693	      0.42875812	     -3.76330218	    -21.05695711	     19.61620934	     -3.95741596	      3.70157442	      2.25669671	      4.79532061
